<svg id="Layer_1" data-name="Layer 1" xmlns="http://www.w3.org/2000/svg" viewBox="0 0 421.73 76.22"><defs><style>.cls-1{fill:#fff;}.cls-2{fill:#243e85;}</style></defs><title>logos webmatters finalr2</title><path class="cls-1" d="M55.34,75.13a22.79,22.79,0,0,0,14.7,10c8.88,1.71,17.2,0,23.94-6.67,3.53-3.52,6.8-7.47,7-12.51.53-10.54.55-21.11.43-31.66,0-1.43-1.78-3.57-3.19-4.06a6.19,6.19,0,0,0-5.09,1.16c-1,.87-1.35,3-1.38,4.63-.14,7.58,0,15.17-.06,22.76,0,5.89-1.75,10.93-7,14.36-7,4.62-12.35,4.06-19.1-1.15-4.08-3.15-5.26-7.85-5.29-12.83,0-8,0-16,0-24,0-3.39-1.78-5.27-4.75-5.36s-5,1.79-5.1,5.31c-.09,6.69,0,13.38-.06,20.07A55.72,55.72,0,0,1,50.08,63c-1.16,7.76-9.17,13.89-17,13.19-5.91-.54-12.27-6.31-13.44-12.31a29.93,29.93,0,0,1-.53-5.34c-.07-5.19.1-10.39-.05-15.58-.37-12.16,1.05-23.75,10.41-33.05-10.26-.62-20,8.75-20.18,19.49-.21,10.47-.17,21,0,31.44C9.51,70.28,13.8,77.54,22,82.35c6.44,3.75,13.25,4.24,20.33,2.18A22.27,22.27,0,0,0,55.34,75.13Z" transform="translate(-9.17 -9.68)"/><path d="M55.34,75.13a22.27,22.27,0,0,1-13,9.4C35.29,86.59,28.48,86.1,22,82.35,13.8,77.54,9.51,70.28,9.33,60.8c-.19-10.48-.23-21,0-31.44C9.53,18.62,19.23,9.25,29.49,9.87c-9.36,9.3-10.78,20.89-10.41,33.05.15,5.19,0,10.39.05,15.58a29.93,29.93,0,0,0,.53,5.34c1.17,6,7.53,11.77,13.44,12.31,7.81.7,15.82-5.43,17-13.19a55.72,55.72,0,0,0,.36-7.76c.05-6.69,0-13.38.06-20.07.06-3.52,2-5.41,5.1-5.31s4.72,2,4.75,5.36c.06,8,0,16,0,24,0,5,1.21,9.68,5.29,12.83,6.75,5.21,12.08,5.77,19.1,1.15,5.21-3.43,7-8.47,7-14.36,0-7.59-.08-15.18.06-22.76,0-1.6.34-3.76,1.38-4.63a6.19,6.19,0,0,1,5.09-1.16c1.41.49,3.17,2.63,3.19,4.06.12,10.55.1,21.12-.43,31.66-.25,5-3.52,9-7,12.51C87.24,85.16,78.92,86.82,70,85.11A22.79,22.79,0,0,1,55.34,75.13Z" transform="translate(-9.17 -9.68)"/><path class="cls-2" d="M74.31,20.43A22.8,22.8,0,0,0,59.68,10.35c-8.87-1.77-17.2-.16-24,6.51-3.55,3.5-6.84,7.42-7.13,12.46C28,39.86,27.87,50.43,27.92,61c0,1.43,1.75,3.58,3.16,4.08a6.17,6.17,0,0,0,5.1-1.13c1-.86,1.37-3,1.41-4.61.19-7.59.15-15.17.22-22.76,0-5.9,1.81-10.92,7-14.31,7.06-4.58,12.38-4,19.1,1.27,4.06,3.18,5.21,7.89,5.2,12.87,0,8-.12,16-.12,24,0,3.39,1.75,5.28,4.72,5.39s5-1.76,5.13-5.28c.14-6.69.1-13.38.2-20.06a54.24,54.24,0,0,1,.41-7.76c1.21-7.75,9.26-13.84,17.07-13.08,5.9.58,12.23,6.39,13.36,12.4a29.91,29.91,0,0,1,.49,5.35c0,5.19-.17,10.38,0,15.57.28,12.17-1.22,23.74-10.64,33,10.26.69,20-8.61,20.31-19.35.28-10.47.31-21,.19-31.44-.11-9.48-4.35-16.77-12.56-21.63-6.42-3.79-13.22-4.33-20.32-2.33A22.33,22.33,0,0,0,74.31,20.43Z" transform="translate(-9.17 -9.68)"/><path class="cls-2" d="M74.31,20.43a22.33,22.33,0,0,1,13-9.32c7.1-2,13.9-1.46,20.32,2.33,8.21,4.86,12.45,12.15,12.56,21.63.12,10.48.09,21-.19,31.44-.29,10.74-10,20-20.31,19.35,9.42-9.24,10.92-20.81,10.64-33-.12-5.19.09-10.38,0-15.57a29.91,29.91,0,0,0-.49-5.35c-1.13-6-7.46-11.82-13.36-12.4-7.81-.76-15.86,5.33-17.07,13.08a54.24,54.24,0,0,0-.41,7.76c-.1,6.68-.06,13.37-.2,20.06-.08,3.52-2,5.4-5.13,5.28S69,63.74,69,60.35c0-8,.1-16,.12-24,0-5-1.14-9.69-5.2-12.87-6.72-5.26-12-5.85-19.1-1.27-5.23,3.39-7,8.41-7,14.31-.07,7.59,0,15.17-.22,22.76,0,1.6-.36,3.75-1.41,4.61a6.17,6.17,0,0,1-5.1,1.13c-1.41-.5-3.15-2.65-3.16-4.08-.05-10.55,0-21.12.64-31.66.29-5,3.58-9,7.13-12.46,6.79-6.67,15.12-8.28,24-6.51A22.8,22.8,0,0,1,74.31,20.43Z" transform="translate(-9.17 -9.68)"/><path d="M128.88,26.1h5.39l7.45,31.15c.25,1.12.52,2.39.8,3.8s.49,2.41.6,3h.27l1.08-6.76,5.71-31.15h7.34l5.93,31.15L164.58,64h.27c.11-.55.32-1.54.62-3s.59-2.68.84-3.8l7.17-31.15h5.13L167.93,70.26h-7.07L155,39.3q-.43-2.32-.78-4.41c-.24-1.39-.39-2.33-.46-2.8h-.27c-.08.51-.21,1.49-.41,2.93s-.42,2.86-.67,4.28l-5.83,31h-7.06Z" transform="translate(-9.17 -9.68)"/><path d="M183.67,66.72q-3.34-4.32-3.34-13.39t3.34-13.39q3.35-4.3,10.2-4.31,6.15,0,9.19,3.89T206.11,52v2.83H185.24c.18,3.91,1,6.79,2.34,8.66a7.32,7.32,0,0,0,6.29,2.8,8,8,0,0,0,5.5-1.87q2.1-1.86,2.1-5.72h4.64q0,5.91-3.42,9.1A12.43,12.43,0,0,1,193.87,71Q187,71,183.67,66.72Zm17.48-16.54q0-9.85-7.28-9.85-4.05,0-6.07,2.32t-2.45,7.53Z" transform="translate(-9.17 -9.68)"/><path d="M220,69.68a9.88,9.88,0,0,1-3.7-4H216l-.59,4.57h-3.56V23.72h4.74V40.26h.33a8.71,8.71,0,0,1,3.5-3.54,11,11,0,0,1,5.13-1.09,9,9,0,0,1,7.9,4.41q2.88,4.41,2.88,13.29,0,9.08-2.91,13.39A9.44,9.44,0,0,1,225.09,71,9.84,9.84,0,0,1,220,69.68Zm8.28-4.57a7.23,7.23,0,0,0,2.37-4,30,30,0,0,0,.75-7.53v-.26a31.12,31.12,0,0,0-.75-7.66,7.34,7.34,0,0,0-2.4-4.09,7,7,0,0,0-4.34-1.25,5.9,5.9,0,0,0-5.56,3.28c-1.18,2.19-1.78,5.43-1.78,9.72v.26c0,4.2.59,7.38,1.76,9.52a5.88,5.88,0,0,0,5.58,3.22A7.13,7.13,0,0,0,228.28,65.11Z" transform="translate(-9.17 -9.68)"/><path d="M257.45,26.1h7.61l8.84,30.13c.33,1.11.66,2.39,1,3.82s.57,2.38.67,2.8h.22c.11-.47.33-1.45.67-3s.66-2.72,1-3.66l8.9-30.13h7.55V70.26h-5.13V41.1l.11-8.24h-.38c0,.3-.14.91-.32,1.84a24.39,24.39,0,0,1-.59,2.41l-10,33.15h-4.27l-9.86-33.15c-.18-.6-.37-1.38-.57-2.35s-.32-1.6-.35-1.9h-.32l.1,8.24V70.26h-4.8Z" transform="translate(-9.17 -9.68)"/><path d="M302.92,69q-2.87-2.06-2.86-7.47,0-6.49,4.85-8.91t14-2.41V46.44a6.62,6.62,0,0,0-1.4-4.54q-1.39-1.57-5.07-1.57-3.45,0-4.93,1.54a5.28,5.28,0,0,0-1.49,3.8v.77h-4.58a11.51,11.51,0,0,1,0-1.41,8.29,8.29,0,0,1,3.13-7,13.19,13.19,0,0,1,8.35-2.45q5.3,0,8,2.64t2.75,7.46V64.08a2.33,2.33,0,0,0,.54,1.7,1.8,1.8,0,0,0,1.35.55h2.16V70a7.66,7.66,0,0,1-3.67.77A4.07,4.07,0,0,1,321,69.45a7,7,0,0,1-1.67-3.51h-.38a10.25,10.25,0,0,1-4,3.74A11.46,11.46,0,0,1,309.44,71,10.88,10.88,0,0,1,302.92,69Zm11.75-3.67a8,8,0,0,0,3.08-3.06,9.59,9.59,0,0,0,1.18-4.92V54.87q-6.94,0-10.43,1.32a4.94,4.94,0,0,0-3.48,5,4.89,4.89,0,0,0,1.43,4,6.49,6.49,0,0,0,4.23,1.19A8.13,8.13,0,0,0,314.67,65.3Z" transform="translate(-9.17 -9.68)"/><path d="M333.87,68.9a9,9,0,0,1-1.34-5.08V41.1h-3.46V36.4h3.51l1-9.39h3.67V36.4h4.8v4.7h-4.8V63.3q0,3,2.37,3h2.43v3.73a7.4,7.4,0,0,1-1.83.65,9.66,9.66,0,0,1-2.11.25A4.71,4.71,0,0,1,333.87,68.9Z" transform="translate(-9.17 -9.68)"/><path d="M348.87,68.9a9.05,9.05,0,0,1-1.35-5.08V41.1h-3.45V36.4h3.5l1-9.39h3.66V36.4h4.81v4.7h-4.81V63.3c0,2,.8,3,2.38,3h2.43v3.73a7.35,7.35,0,0,1-1.84.65,9.51,9.51,0,0,1-2.1.25A4.71,4.71,0,0,1,348.87,68.9Z" transform="translate(-9.17 -9.68)"/><path d="M363.54,66.72q-3.35-4.32-3.35-13.39t3.35-13.39q3.33-4.3,10.19-4.31,6.15,0,9.19,3.89T386,52v2.83H365.1c.18,3.91,1,6.79,2.35,8.66a7.29,7.29,0,0,0,6.28,2.8,8,8,0,0,0,5.5-1.87q2.1-1.86,2.1-5.72H386q0,5.91-3.42,9.1A12.43,12.43,0,0,1,373.73,71Q366.88,71,363.54,66.72ZM381,50.18q0-9.85-7.28-9.85-4.05,0-6.07,2.32c-1.35,1.54-2.16,4.05-2.45,7.53Z" transform="translate(-9.17 -9.68)"/><path d="M391.69,36.4h3.61l.54,5.09h.33a10.45,10.45,0,0,1,2.42-4.19,5.68,5.68,0,0,1,4.26-1.67,6,6,0,0,1,1.65.22l.89.29v5.48h-2a6.54,6.54,0,0,0-5,2.09q-2,2.09-2,6.53v20h-4.74Z" transform="translate(-9.17 -9.68)"/><path d="M412.8,69.64A9,9,0,0,1,409,66a9.93,9.93,0,0,1-1.24-4.89c0-.52,0-.87,0-1.07s0-.31,0-.35h4.69v.64a5.34,5.34,0,0,0,2,4.54,8.32,8.32,0,0,0,5.18,1.51,7.5,7.5,0,0,0,4.55-1.32,4.29,4.29,0,0,0,1.81-3.7,4.47,4.47,0,0,0-1-3,7,7,0,0,0-2.53-1.87,35.72,35.72,0,0,0-4.1-1.45,36.55,36.55,0,0,1-5.1-1.93,9,9,0,0,1-3.34-2.86,8.2,8.2,0,0,1-1.38-4.93,8.78,8.78,0,0,1,3.05-7,12.22,12.22,0,0,1,8.23-2.61,12,12,0,0,1,5.61,1.25A8.8,8.8,0,0,1,429,40.23a9.14,9.14,0,0,1,1.22,4.67l-.06,1.22H425.5v-.58A5,5,0,0,0,424,41.81q-1.49-1.48-4.77-1.48t-4.53,1.38a4.51,4.51,0,0,0-1.3,3.19,3.39,3.39,0,0,0,.92,2.44,6.78,6.78,0,0,0,2.26,1.55,37.89,37.89,0,0,0,3.78,1.29,41.93,41.93,0,0,1,5.45,2,9.5,9.5,0,0,1,3.58,3,8.88,8.88,0,0,1,1.49,5.37c0,3.48-1.06,6.08-3.16,7.82A12.73,12.73,0,0,1,419.36,71,13.85,13.85,0,0,1,412.8,69.64Z" transform="translate(-9.17 -9.68)"/></svg>